<?xml version="1.0" encoding="utf-8"?>
<!-- Generated by IcoMoon.io -->
<!DOCTYPE svg PUBLIC "-//W3C//DTD SVG 1.1//EN" "http://www.w3.org/Graphics/SVG/1.1/DTD/svg11.dtd">

<svg version="1.1" xmlns="http://www.w3.org/2000/svg" xmlns:xlink="http://www.w3.org/1999/xlink" width="80" height="32" viewBox="0 0 80 32">
<defs>
<g id="icon-hyperlink">
	<path class="path1" d="M31.467 8.267l-7.733-7.733c-0.711-0.711-1.866-0.711-2.577 0l-7.733 7.733c-0.713 0.711-0.713 1.866 0 2.579l1.288 1.288 7.733-7.733 5.156 5.156-7.733 7.733 1.29 1.29c0.711 0.711 1.866 0.711 2.577 0l7.733-7.733c0.711-0.713 0.711-1.868 0-2.579zM17.29 19.867l-7.733 7.733-5.156-5.156 7.733-7.733-1.29-1.29c-0.711-0.711-1.866-0.711-2.577 0l-7.733 7.733c-0.711 0.713-0.711 1.868 0 2.579l7.733 7.733c0.711 0.711 1.866 0.711 2.577 0l7.733-7.733c0.713-0.711 0.713-1.866 0-2.579l-1.288-1.288zM10.844 21.154c0.713 0.713 1.866 0.713 2.579 0l7.733-7.733c0.711-0.711 0.711-1.864 0-2.575-0.713-0.713-1.866-0.713-2.579 0l-7.733 7.733c-0.711 0.711-0.711 1.864 0 2.575z"></path>
</g>
<g id="icon-trash">
	<path class="path1" d="M18 14h4v10h-4zM30 6h-8v-4c0-1.105-0.895-2-2-2h-8c-1.105 0-2 0.894-2 2v4h-8c-1.105 0-2 0.894-2 2v2h2v20c0 1.105 0.894 2 2 2h24c1.105 0 2-0.895 2-2v-20h2v-2c0-1.106-0.895-2-2-2zM14 4h4v2h-4v-2zM26 28h-20v-18h20v18zM10 14h4v10h-4z"></path>
</g>
</defs>

<g fill="#000000">
	<use xlink:href="#icon-hyperlink" transform="translate(0 0)"></use>
	<use xlink:href="#icon-trash" transform="translate(48 0)"></use>
</g>

</svg>
